<svg xmlns="http://www.w3.org/2000/svg" viewBox="0 0 416.66 168"><path d="M612,274.21a42.5,42.5,0,1,0-78.87.27,30.5,30.5,0,0,0,15.29,58.94l-18.2-18.68a2.5,2.5,0,0,1,3.58-3.48l20,20.56A30.64,30.64,0,0,0,568,320.23V271a4,4,0,0,1,8,0v45.71a30.51,30.51,0,0,0,5.67,8.08l26.59-26.59a2.5,2.5,0,0,1,3.54,3.54l-26.35,26.34A30.5,30.5,0,1,0,612,274.21Z" transform="translate(-512 -216)"/><path d="M572.89,301c.07.83.11,1.66.11,2.51,0-.85,0-1.69.11-2.52Z" transform="translate(-512 -216)"/><path d="M581.67,324.79,576,330.46V316.71a30.45,30.45,0,0,1-3-13.21,30.35,30.35,0,0,1-5,16.73v26.13l-14.17-14.54a31,31,0,0,1-5.42,1.6L568,353.53V380a4,4,0,0,0,8,0V336a2.45,2.45,0,0,0,2.24-.68l7.21-7.22A30.32,30.32,0,0,1,581.67,324.79Z" transform="translate(-512 -216)"/><path d="M694.89,249.41H671.8v75.88q0,6.56-2.92,9.72a9.79,9.79,0,0,1-7.55,3.17,9.92,9.92,0,0,1-7.66-3.2q-3-3.21-3-9.69V249.41H627.63q-5.42,0-8.06-2.39a8.11,8.11,0,0,1-2.63-6.31,8,8,0,0,1,2.74-6.41q2.75-2.36,8-2.35h67.26q5.48,0,8.15,2.42a8.14,8.14,0,0,1,2.68,6.34A8,8,0,0,1,703,247C701.2,248.61,698.5,249.41,694.89,249.41Z" transform="translate(-512 -216)"/><path d="M730.65,310.11v16.25q0,5.91-2.77,8.87a9.28,9.28,0,0,1-7.06,2.95,8.88,8.88,0,0,1-6.91-3c-1.81-2-2.71-4.94-2.71-8.83V272.21q0-13.11,9.48-13.11,4.85,0,7,3.06t2.35,9a34.19,34.19,0,0,1,7.16-9q3.68-3.06,9.8-3.06a25.13,25.13,0,0,1,11.9,3.06q5.77,3.06,5.77,8.12a7.71,7.71,0,0,1-2.46,5.88,7.61,7.61,0,0,1-5.31,2.32,24.43,24.43,0,0,1-5.16-1.32,24,24,0,0,0-7.23-1.32,10.64,10.64,0,0,0-7,2.24,14.48,14.48,0,0,0-4.2,6.67,46.2,46.2,0,0,0-2.07,10.51Q730.65,301.35,730.65,310.11Z" transform="translate(-512 -216)"/><path d="M825.92,303.41h-38a25.66,25.66,0,0,0,2.67,11.69A17.9,17.9,0,0,0,807,325.29a23.15,23.15,0,0,0,6.38-.82,20.68,20.68,0,0,0,5.59-2.57,41.87,41.87,0,0,0,5-3.74q2.28-2,5.91-5.41a6.38,6.38,0,0,1,4.28-1.28A7,7,0,0,1,839,313.1a5.87,5.87,0,0,1,1.86,4.64,12.65,12.65,0,0,1-2.07,6.16,24.62,24.62,0,0,1-6.23,6.77A35.63,35.63,0,0,1,822,336.05a45.26,45.26,0,0,1-14.5,2.13q-18.74,0-29.14-10.68t-10.4-29a48.41,48.41,0,0,1,2.56-16A35.23,35.23,0,0,1,778,269.86a32.34,32.34,0,0,1,12.11-8.09,43.35,43.35,0,0,1,16-2.82q11.4,0,19.56,4.81a31.61,31.61,0,0,1,12.21,12.44A32.67,32.67,0,0,1,842,291.73q0,7.33-4.21,9.51T825.92,303.41Zm-38-11h35.27q-.72-10-5.38-14.93t-12.29-4.95a15.57,15.57,0,0,0-11.94,5Q788.87,282.53,787.87,292.37Z" transform="translate(-512 -216)"/><path d="M912.63,303.41h-38a25.92,25.92,0,0,0,2.67,11.69,17.9,17.9,0,0,0,16.42,10.19,23.15,23.15,0,0,0,6.38-.82,20.54,20.54,0,0,0,5.59-2.57,41.87,41.87,0,0,0,5-3.74q2.28-2,5.92-5.41a6.33,6.33,0,0,1,4.27-1.28,7.06,7.06,0,0,1,4.85,1.63,5.9,5.9,0,0,1,1.85,4.64,12.65,12.65,0,0,1-2.07,6.16,24.46,24.46,0,0,1-6.23,6.77,35.63,35.63,0,0,1-10.48,5.38,45.21,45.21,0,0,1-14.5,2.13q-18.74,0-29.14-10.68t-10.4-29a48.41,48.41,0,0,1,2.57-16,35.21,35.21,0,0,1,7.48-12.64,32.34,32.34,0,0,1,12.11-8.09,43.42,43.42,0,0,1,16-2.82q11.4,0,19.56,4.81A31.64,31.64,0,0,1,924.6,276.2a32.77,32.77,0,0,1,4.06,15.53q0,7.33-4.2,9.51T912.63,303.41Zm-38-11h35.27q-.72-10-5.38-14.93t-12.29-4.95a15.57,15.57,0,0,0-11.94,5Q875.58,282.53,874.58,292.37Z" transform="translate(-512 -216)"/><path d="M665.49,360.47h-5.83v8.91a4.18,4.18,0,0,1-.91,2.9,2.93,2.93,0,0,1-2.27,1,3,3,0,0,1-2.32-1,4.14,4.14,0,0,1-.88-2.87V345.17a3.93,3.93,0,0,1,1-3,4.38,4.38,0,0,1,3.07-.9h8.17a21.56,21.56,0,0,1,5.58.55,8.36,8.36,0,0,1,3.34,1.79,8,8,0,0,1,2.14,3,10.88,10.88,0,0,1,.72,4.06c0,3.2-1,5.63-3,7.29S669.4,360.47,665.49,360.47ZM664,346.05h-4.29v9.62H664a12.55,12.55,0,0,0,3.76-.48,4.34,4.34,0,0,0,2.31-1.54,4.61,4.61,0,0,0,.79-2.81,4.74,4.74,0,0,0-1.22-3.39C668.68,346.52,666.79,346.05,664,346.05Z" transform="translate(-512 -216)"/><path d="M687.92,344.29V353a12.16,12.16,0,0,1,2.18-2,7.63,7.63,0,0,1,2.35-1.13,9.86,9.86,0,0,1,2.77-.38,8.17,8.17,0,0,1,4,.95,7.34,7.34,0,0,1,3.55,5.09,19.06,19.06,0,0,1,.21,3V369.7a3.9,3.9,0,0,1-.8,2.66,2.74,2.74,0,0,1-2.14.9c-1.93,0-2.89-1.18-2.89-3.56v-9.89a9.06,9.06,0,0,0-.84-4.33,3.32,3.32,0,0,0-3.18-1.51,4.8,4.8,0,0,0-2.82.89,5.42,5.42,0,0,0-1.88,2.44,15.74,15.74,0,0,0-.47,4.66v7.74a4,4,0,0,1-.78,2.65,2.72,2.72,0,0,1-2.18.91c-1.93,0-2.9-1.18-2.9-3.56V344.29a4,4,0,0,1,.76-2.67,2.68,2.68,0,0,1,2.14-.89,2.75,2.75,0,0,1,2.18.9A4,4,0,0,1,687.92,344.29Z" transform="translate(-512 -216)"/><path d="M730.67,361.35a13.91,13.91,0,0,1-.81,4.83,10.6,10.6,0,0,1-2.37,3.8,10.48,10.48,0,0,1-3.69,2.44,13.16,13.16,0,0,1-4.83.84,12.72,12.72,0,0,1-4.78-.85,10.57,10.57,0,0,1-6-6.24,14.81,14.81,0,0,1,0-9.69,10.46,10.46,0,0,1,2.34-3.77,10.22,10.22,0,0,1,3.69-2.42,13.93,13.93,0,0,1,9.61,0,10.45,10.45,0,0,1,3.72,2.45,10.64,10.64,0,0,1,2.35,3.78A14,14,0,0,1,730.67,361.35Zm-5.88,0a8.8,8.8,0,0,0-1.58-5.58,5.11,5.11,0,0,0-4.24-2,5.26,5.26,0,0,0-3,.89,5.63,5.63,0,0,0-2,2.63,11.9,11.9,0,0,0,0,8.07,5.74,5.74,0,0,0,2,2.63,5.21,5.21,0,0,0,3.05.91,5.1,5.1,0,0,0,4.24-2A8.79,8.79,0,0,0,724.79,361.35Z" transform="translate(-512 -216)"/><path d="M735.61,350h.64v-3.52c0-.95,0-1.69.08-2.22a3.44,3.44,0,0,1,.41-1.39,2.64,2.64,0,0,1,1-1,2.82,2.82,0,0,1,1.44-.38,2.9,2.9,0,0,1,2,.84,2.47,2.47,0,0,1,.76,1.36,12.22,12.22,0,0,1,.16,2.29v4h2.15a2.72,2.72,0,0,1,1.9.59,2,2,0,0,1,.65,1.51,1.68,1.68,0,0,1-.93,1.65,6,6,0,0,1-2.67.48h-1.1V365a16.12,16.12,0,0,0,.1,2.11,2.13,2.13,0,0,0,.51,1.21,1.8,1.8,0,0,0,1.36.46,6.78,6.78,0,0,0,1.4-.19,7.33,7.33,0,0,1,1.37-.18,1.76,1.76,0,0,1,1.28.57,1.92,1.92,0,0,1,.57,1.41,2.35,2.35,0,0,1-1.55,2.16,10.45,10.45,0,0,1-4.44.75,7.61,7.61,0,0,1-4.16-.92,4.22,4.22,0,0,1-1.86-2.55,17.51,17.51,0,0,1-.44-4.36V354.19h-.77a2.73,2.73,0,0,1-1.93-.61,1.93,1.93,0,0,1-.67-1.52,1.88,1.88,0,0,1,.7-1.51A3,3,0,0,1,735.61,350Z" transform="translate(-512 -216)"/><path d="M772.78,361.35a13.68,13.68,0,0,1-.82,4.83,10.41,10.41,0,0,1-6.05,6.24,13.16,13.16,0,0,1-4.83.84,12.68,12.68,0,0,1-4.78-.85,10.58,10.58,0,0,1-3.68-2.46,10.72,10.72,0,0,1-2.37-3.78,14.9,14.9,0,0,1,0-9.69,10.46,10.46,0,0,1,2.34-3.77,10.22,10.22,0,0,1,3.69-2.42,13.93,13.93,0,0,1,9.61,0,10.4,10.4,0,0,1,6.06,6.23A13.73,13.73,0,0,1,772.78,361.35Zm-5.88,0a8.8,8.8,0,0,0-1.58-5.58,5.11,5.11,0,0,0-4.24-2,5.26,5.26,0,0,0-3,.89,5.57,5.57,0,0,0-2,2.63,10.73,10.73,0,0,0-.71,4.05,10.58,10.58,0,0,0,.7,4,5.79,5.79,0,0,0,2,2.63,5.26,5.26,0,0,0,3.06.91,5.1,5.1,0,0,0,4.24-2A8.79,8.79,0,0,0,766.9,361.35Z" transform="translate(-512 -216)"/><path d="M798.94,353.74v17a18.1,18.1,0,0,1-.62,5,8,8,0,0,1-2,3.47,8.24,8.24,0,0,1-3.59,2,19.34,19.34,0,0,1-5.53.67,16.21,16.21,0,0,1-5.41-.85,9.44,9.44,0,0,1-3.67-2.19,4,4,0,0,1-1.29-2.76,2.31,2.31,0,0,1,.73-1.75,2.51,2.51,0,0,1,1.76-.67,2.9,2.9,0,0,1,2.26,1.14l1,1.16a5.6,5.6,0,0,0,1.12,1,4.48,4.48,0,0,0,1.47.63,9,9,0,0,0,2,.2,8,8,0,0,0,3.52-.63,3.64,3.64,0,0,0,1.76-1.77A7.11,7.11,0,0,0,793,373c0-.87.1-2.26.12-4.17a9.71,9.71,0,0,1-3.12,2.87,8.48,8.48,0,0,1-4.21,1,8.92,8.92,0,0,1-5.15-1.5,9.74,9.74,0,0,1-3.38-4.21,15.62,15.62,0,0,1-1.18-6.25,14.78,14.78,0,0,1,.72-4.76,9.89,9.89,0,0,1,2.05-3.58,8.66,8.66,0,0,1,3.07-2.2,9.53,9.53,0,0,1,3.82-.74,9.11,9.11,0,0,1,4.31.95,10.68,10.68,0,0,1,3.4,3v-.79a3.41,3.41,0,0,1,.75-2.36,2.46,2.46,0,0,1,1.93-.84,2.27,2.27,0,0,1,2.25,1.11A7.3,7.3,0,0,1,798.94,353.74Zm-17,7.42a8.1,8.1,0,0,0,1.56,5.39,5.06,5.06,0,0,0,4,1.82,5.24,5.24,0,0,0,2.76-.78,5.77,5.77,0,0,0,2.12-2.36,8.31,8.31,0,0,0,.81-3.83,8.74,8.74,0,0,0-1.58-5.58,5,5,0,0,0-4.15-2,4.88,4.88,0,0,0-4,1.91A8.54,8.54,0,0,0,782,361.16Z" transform="translate(-512 -216)"/><path d="M810.1,364.81v4.89a3.75,3.75,0,0,1-.84,2.67,2.74,2.74,0,0,1-2.12.89,2.67,2.67,0,0,1-2.08-.9,3.8,3.8,0,0,1-.82-2.66V353.39q0-3.94,2.86-3.95a2.37,2.37,0,0,1,2.1.93,5.12,5.12,0,0,1,.71,2.72,10.27,10.27,0,0,1,2.15-2.72,4.44,4.44,0,0,1,3-.93,7.51,7.51,0,0,1,3.59.93,2.75,2.75,0,0,1,1.74,2.44,2.32,2.32,0,0,1-.74,1.77,2.3,2.3,0,0,1-1.6.7,7,7,0,0,1-1.56-.4,7.34,7.34,0,0,0-2.18-.39,3.19,3.19,0,0,0-2.1.67,4.36,4.36,0,0,0-1.27,2,14.37,14.37,0,0,0-.62,3.16C810.16,361.56,810.1,363.05,810.1,364.81Z" transform="translate(-512 -216)"/><path d="M837.25,370a18.34,18.34,0,0,1-4.11,2.48,11.49,11.49,0,0,1-4.45.82,8.32,8.32,0,0,1-4-.89A6.41,6.41,0,0,1,822.1,370a6.24,6.24,0,0,1-.93-3.3,5.89,5.89,0,0,1,1.53-4.1,7.63,7.63,0,0,1,4.18-2.28l2.77-.58c1.47-.3,2.74-.57,3.79-.82s2.19-.56,3.42-.92a6.11,6.11,0,0,0-.93-3.4q-.82-1.08-3.42-1.08a7.2,7.2,0,0,0-3.36.62,5.48,5.48,0,0,0-1.94,1.87c-.53.83-.91,1.37-1.13,1.64a1.89,1.89,0,0,1-1.43.4,2.52,2.52,0,0,1-1.71-.64,2,2,0,0,1-.71-1.62,4.93,4.93,0,0,1,1.09-3,7.89,7.89,0,0,1,3.41-2.41,15.4,15.4,0,0,1,5.78-.94,16.29,16.29,0,0,1,6.07.91,5.66,5.66,0,0,1,3.12,2.89,12.58,12.58,0,0,1,.91,5.24c0,1.37,0,2.53,0,3.49s0,2,0,3.2a11.69,11.69,0,0,0,.55,3.45,11.24,11.24,0,0,1,.55,2.3,2.17,2.17,0,0,1-.85,1.64,2.83,2.83,0,0,1-1.92.74,2.59,2.59,0,0,1-1.78-.84A12.79,12.79,0,0,1,837.25,370Zm-.39-8.48a28.81,28.81,0,0,1-3.74,1c-1.64.35-2.78.61-3.4.77a4.78,4.78,0,0,0-1.81,1,2.49,2.49,0,0,0-.86,2,3,3,0,0,0,1,2.26,3.77,3.77,0,0,0,2.64.93,6.84,6.84,0,0,0,3.21-.76,5.12,5.12,0,0,0,2.16-2,9,9,0,0,0,.79-4.38Z" transform="translate(-512 -216)"/><path d="M853.39,352.73v.7a11.67,11.67,0,0,1,3.43-3,8.37,8.37,0,0,1,4-.95,9.3,9.3,0,0,1,5,1.39,9.6,9.6,0,0,1,3.6,4.08,14.23,14.23,0,0,1,1.32,6.35,15.46,15.46,0,0,1-.76,5,11.27,11.27,0,0,1-2.09,3.8,9.2,9.2,0,0,1-3.15,2.36,9.3,9.3,0,0,1-3.89.82,8.19,8.19,0,0,1-4.22-1,12,12,0,0,1-3.25-3v8.8q0,3.87-2.81,3.87a2.25,2.25,0,0,1-2.19-1,6.28,6.28,0,0,1-.54-2.91V352.77a3.66,3.66,0,0,1,.73-2.5,2.54,2.54,0,0,1,2-.83,2.63,2.63,0,0,1,2,.85A3.45,3.45,0,0,1,853.39,352.73Zm11.48,8.52a10.11,10.11,0,0,0-.71-4,5.92,5.92,0,0,0-2-2.56,4.74,4.74,0,0,0-2.78-.89,5.23,5.23,0,0,0-4.09,1.91,8.33,8.33,0,0,0-1.66,5.62,8.13,8.13,0,0,0,1.65,5.44,5.16,5.16,0,0,0,4.1,1.95,4.74,4.74,0,0,0,2.7-.85,5.85,5.85,0,0,0,2-2.54A10.11,10.11,0,0,0,864.87,361.25Z" transform="translate(-512 -216)"/><path d="M881.18,344.29V353a12.16,12.16,0,0,1,2.18-2,7.63,7.63,0,0,1,2.35-1.13,9.86,9.86,0,0,1,2.77-.38,8.14,8.14,0,0,1,4,.95,6.75,6.75,0,0,1,2.71,2.74,6.6,6.6,0,0,1,.84,2.35,19.06,19.06,0,0,1,.21,3V369.7a3.9,3.9,0,0,1-.8,2.66,2.74,2.74,0,0,1-2.14.9c-1.93,0-2.89-1.18-2.89-3.56v-9.89a9.06,9.06,0,0,0-.84-4.33,3.32,3.32,0,0,0-3.18-1.51,4.8,4.8,0,0,0-2.82.89,5.42,5.42,0,0,0-1.88,2.44,15.74,15.74,0,0,0-.47,4.66v7.74a4,4,0,0,1-.78,2.65,2.72,2.72,0,0,1-2.18.91c-1.93,0-2.9-1.18-2.9-3.56V344.29a4,4,0,0,1,.76-2.67,2.68,2.68,0,0,1,2.14-.89,2.75,2.75,0,0,1,2.18.9A4,4,0,0,1,881.18,344.29Z" transform="translate(-512 -216)"/><path d="M907.41,374l.53-1.31-7.21-18.16a6.78,6.78,0,0,1-.66-2.28,2.71,2.71,0,0,1,.38-1.39,2.94,2.94,0,0,1,1.07-1,2.74,2.74,0,0,1,1.4-.39,2.29,2.29,0,0,1,1.91.81,7.33,7.33,0,0,1,1.14,2.3l5,14.43,4.7-13.42a21.06,21.06,0,0,1,1-2.55,3,3,0,0,1,1-1.25,2.7,2.7,0,0,1,1.43-.32,2.45,2.45,0,0,1,1.27.36,2.41,2.41,0,0,1,1,.95,2.62,2.62,0,0,1,.33,1.27c-.06.27-.15.66-.28,1.16a15.53,15.53,0,0,1-.47,1.52l-7.64,20a23.4,23.4,0,0,1-1.93,4.14,6.24,6.24,0,0,1-2.5,2.31,9.17,9.17,0,0,1-4.2.81,10.24,10.24,0,0,1-3.86-.56,2.27,2.27,0,0,1-.68-3.6,2.69,2.69,0,0,1,1.82-.54,3.2,3.2,0,0,1,.92.13,4.65,4.65,0,0,0,1,.12,3.44,3.44,0,0,0,1.58-.3,2.65,2.65,0,0,0,1-1A15.61,15.61,0,0,0,907.41,374Z" transform="translate(-512 -216)"/></svg>