<svg id="Layer_1" data-name="Layer 1" xmlns="http://www.w3.org/2000/svg" viewBox="0 0 541.14 168"><defs><style>.cls-1{fill:#fff;}.cls-2,.cls-7{fill:#231f20;}.cls-3,.cls-4,.cls-5,.cls-6{fill:none;}.cls-3,.cls-4,.cls-5,.cls-7{stroke:#231f20;}.cls-3,.cls-4,.cls-5,.cls-6,.cls-7{stroke-miterlimit:10;}.cls-3,.cls-7{stroke-width:5px;}.cls-4{stroke-width:6px;}.cls-5{stroke-width:8px;}.cls-6{stroke:#fff;stroke-width:7px;}.cls-8{opacity:0;}</style></defs><path class="cls-1" d="M243.53,13.53a14.12,14.12,0,0,1-.17,2.41,4.38,4.38,0,0,1-.55,1.64,2.38,2.38,0,0,1-.93.91,2.66,2.66,0,0,1-1.23.29H209.81v81.78a1.59,1.59,0,0,1-.34,1,2.22,2.22,0,0,1-1.18.7,14.82,14.82,0,0,1-2.25.43,28,28,0,0,1-3.51.19,28.41,28.41,0,0,1-3.48-.19,14.75,14.75,0,0,1-2.29-.43,2.22,2.22,0,0,1-1.18-.7,1.59,1.59,0,0,1-.34-1V18.78H164.4a2.66,2.66,0,0,1-1.23-.29,2.17,2.17,0,0,1-.89-.91,5.8,5.8,0,0,1-.55-1.64,12.07,12.07,0,0,1-.21-2.41,12.68,12.68,0,0,1,.21-2.44,6.48,6.48,0,0,1,.55-1.71,2.17,2.17,0,0,1,.89-1,2.66,2.66,0,0,1,1.23-.29h76.25a2.66,2.66,0,0,1,1.23.29,2.36,2.36,0,0,1,.93,1,4.84,4.84,0,0,1,.55,1.71A14.82,14.82,0,0,1,243.53,13.53Z" transform="translate(-1.26 -4.26)"/><path class="cls-1" d="M291.57,39.34c0,1.07,0,2-.08,2.69a6,6,0,0,1-.34,1.72,2.4,2.4,0,0,1-.64.94,1.55,1.55,0,0,1-1.06.33,5.32,5.32,0,0,1-1.65-.33c-.65-.22-1.38-.43-2.2-.65s-1.74-.43-2.75-.62a17.21,17.21,0,0,0-3.31-.29,12.14,12.14,0,0,0-4.15.73,16.57,16.57,0,0,0-4.28,2.4,32.11,32.11,0,0,0-4.7,4.45q-2.46,2.76-5.42,6.78v43.15a1.5,1.5,0,0,1-.34,1,2.67,2.67,0,0,1-1.1.69,8.72,8.72,0,0,1-2.12.44,32.82,32.82,0,0,1-3.48.15,31.55,31.55,0,0,1-3.38-.15,9.22,9.22,0,0,1-2.16-.44,2.3,2.3,0,0,1-1.11-.69,1.65,1.65,0,0,1-.29-1V35a1.82,1.82,0,0,1,.25-1,2.2,2.2,0,0,1,1-.73,6.41,6.41,0,0,1,1.95-.43c.79-.08,1.83-.11,3.13-.11s2.27,0,3.09.11a5.57,5.57,0,0,1,1.91.43,2.59,2.59,0,0,1,1,.73,1.62,1.62,0,0,1,.3,1v9.54a53.27,53.27,0,0,1,5.89-6.41,31.56,31.56,0,0,1,5.21-3.9,17.55,17.55,0,0,1,4.87-2,22.23,22.23,0,0,1,4.87-.54c.74,0,1.57,0,2.5.1a27.43,27.43,0,0,1,2.93.41c1,.19,1.93.41,2.75.65a6.55,6.55,0,0,1,1.74.73,2,2,0,0,1,.67.69,3.39,3.39,0,0,1,.3.84,7.77,7.77,0,0,1,.17,1.5C291.56,37.33,291.57,38.22,291.57,39.34Z" transform="translate(-1.26 -4.26)"/><path class="cls-1" d="M370.28,65A4.65,4.65,0,0,1,368.62,69a6.28,6.28,0,0,1-3.78,1.2H314.62a35.09,35.09,0,0,0,1.27,9.84,18.1,18.1,0,0,0,4.26,7.51,19.34,19.34,0,0,0,7.75,4.81,35.35,35.35,0,0,0,11.66,1.68,55.24,55.24,0,0,0,9.71-.77,65.09,65.09,0,0,0,7.36-1.71c2.07-.63,3.78-1.2,5.11-1.71a9.51,9.51,0,0,1,3-.77,2.2,2.2,0,0,1,1.07.26,1.71,1.71,0,0,1,.72.76,4.56,4.56,0,0,1,.38,1.42,15.6,15.6,0,0,1,.13,2.22,15.22,15.22,0,0,1-.08,1.64c-.06.47-.13.88-.21,1.24a3,3,0,0,1-.43,1,4.51,4.51,0,0,1-.76.84,13.76,13.76,0,0,1-2.75,1.31,44.48,44.48,0,0,1-5.93,1.78q-3.64.89-8.43,1.57a71.77,71.77,0,0,1-10.21.69,54.13,54.13,0,0,1-16.48-2.26,31.34,31.34,0,0,1-11.91-6.7,27.8,27.8,0,0,1-7.28-11.15,45.21,45.21,0,0,1-2.46-15.6,43,43,0,0,1,2.54-15.2A31.31,31.31,0,0,1,310,41.49a32.27,32.27,0,0,1,11.57-7.22,43.2,43.2,0,0,1,15.16-2.51A41.91,41.91,0,0,1,352,34.23,29.09,29.09,0,0,1,362.4,40.9a25.88,25.88,0,0,1,6,9.84,37.55,37.55,0,0,1,1.9,12.07Zm-14.06-3.57q.25-9.47-4.9-14.87T336,41.16a23.24,23.24,0,0,0-9.13,1.67,19.13,19.13,0,0,0-10.65,10.9,23.43,23.43,0,0,0-1.62,7.69Z" transform="translate(-1.26 -4.26)"/><path class="cls-1" d="M456.62,65A4.65,4.65,0,0,1,455,69a6.31,6.31,0,0,1-3.79,1.2H401a35.08,35.08,0,0,0,1.28,9.84,18,18,0,0,0,4.26,7.51,19.28,19.28,0,0,0,7.75,4.81,35.27,35.27,0,0,0,11.66,1.68,55.12,55.12,0,0,0,9.7-.77A65.3,65.3,0,0,0,443,91.6q3.11-.94,5.11-1.71a9.45,9.45,0,0,1,3-.77,2.16,2.16,0,0,1,1.06.26,1.68,1.68,0,0,1,.73.76,4.56,4.56,0,0,1,.38,1.42,15.6,15.6,0,0,1,.13,2.22,12.82,12.82,0,0,1-.09,1.64,9.1,9.1,0,0,1-.21,1.24,2.75,2.75,0,0,1-.42,1,4.51,4.51,0,0,1-.76.84,13.66,13.66,0,0,1-2.76,1.31,43.58,43.58,0,0,1-5.93,1.78q-3.64.89-8.43,1.57a71.57,71.57,0,0,1-10.21.69,54.17,54.17,0,0,1-16.48-2.26,31.38,31.38,0,0,1-11.9-6.7,27.92,27.92,0,0,1-7.29-11.15,45.22,45.22,0,0,1-2.45-15.6A42.73,42.73,0,0,1,389,52.93a31.05,31.05,0,0,1,7.33-11.44,32.22,32.22,0,0,1,11.56-7.22,43.3,43.3,0,0,1,15.17-2.51,42,42,0,0,1,15.29,2.47,29.09,29.09,0,0,1,10.38,6.67,25.86,25.86,0,0,1,6,9.84,37.55,37.55,0,0,1,1.91,12.07Zm-14.07-3.57q.26-9.47-4.9-14.87t-15.3-5.39a23.16,23.16,0,0,0-9.12,1.67,19.19,19.19,0,0,0-10.66,10.9A24,24,0,0,0,401,61.42Z" transform="translate(-1.26 -4.26)"/><path class="cls-1" d="M206.53,129.75a8.36,8.36,0,0,0-2.32-1.67,10.63,10.63,0,0,0-2.69-.93,22.83,22.83,0,0,0-2.28-.32c-.64,0-1.32-.08-2-.08h-6.95a2.06,2.06,0,0,0-1.18.37,1.4,1.4,0,0,0-.52,1.23v25.77a.44.44,0,0,0,.1.3.62.62,0,0,0,.35.21,4.79,4.79,0,0,0,.66.13,9.9,9.9,0,0,0,1,.05,9.62,9.62,0,0,0,1-.05,4.5,4.5,0,0,0,.66-.13.74.74,0,0,0,.35-.21.44.44,0,0,0,.11-.3V144.06h3.69a18.33,18.33,0,0,0,5.18-.64,10.85,10.85,0,0,0,3.66-1.84,8.08,8.08,0,0,0,2.3-2.87,8.73,8.73,0,0,0,.8-3.78,7.85,7.85,0,0,0-.51-2.88A7.29,7.29,0,0,0,206.53,129.75Zm-3,7.81a5,5,0,0,1-1.33,1.83,6.39,6.39,0,0,1-2.17,1.2,10.36,10.36,0,0,1-3.25.43h-3.89v-11.2h4a17.77,17.77,0,0,1,2.27.15,6.91,6.91,0,0,1,2.26.71,4.74,4.74,0,0,1,1.83,1.71,5.16,5.16,0,0,1,.74,2.85A6,6,0,0,1,203.52,137.56Z" transform="translate(-1.26 -4.26)"/><path class="cls-1" d="M232.3,136.16a6.69,6.69,0,0,0-2.5-1.75,9.69,9.69,0,0,0-3.8-.66,9.1,9.1,0,0,0-3.64.78,13.53,13.53,0,0,0-3.59,2.41V125.31a.44.44,0,0,0-.1-.3.67.67,0,0,0-.32-.22,2.54,2.54,0,0,0-.63-.13,9.78,9.78,0,0,0-1,0,9.29,9.29,0,0,0-1,0,2.74,2.74,0,0,0-.64.13.66.66,0,0,0-.33.22.49.49,0,0,0-.09.3v28.83a.44.44,0,0,0,.09.29.72.72,0,0,0,.33.21,2.74,2.74,0,0,0,.64.13,9.29,9.29,0,0,0,1,0,9.78,9.78,0,0,0,1,0,2.54,2.54,0,0,0,.63-.13.74.74,0,0,0,.32-.21.39.39,0,0,0,.1-.29V140.57a16.25,16.25,0,0,1,3.26-2.79,6,6,0,0,1,3.12-.95,5.42,5.42,0,0,1,2.12.39,3.82,3.82,0,0,1,1.49,1.12,5.33,5.33,0,0,1,.88,1.75,9.75,9.75,0,0,1,.3,2.68v11.37a.39.39,0,0,0,.1.29.74.74,0,0,0,.32.21,2.54,2.54,0,0,0,.63.13,9.78,9.78,0,0,0,1,0,9.29,9.29,0,0,0,1,0,2.54,2.54,0,0,0,.63-.13.85.85,0,0,0,.33-.21.44.44,0,0,0,.1-.29V142.32a13.27,13.27,0,0,0-.42-3.58A6.67,6.67,0,0,0,232.3,136.16Z" transform="translate(-1.26 -4.26)"/><path class="cls-1" d="M259.87,136.53a8.9,8.9,0,0,0-3.45-2.07,14.82,14.82,0,0,0-4.86-.71,14.33,14.33,0,0,0-5,.8,9.79,9.79,0,0,0-3.6,2.24,9.23,9.23,0,0,0-2.16,3.44,14.21,14.21,0,0,0,0,8.78,8.5,8.5,0,0,0,2.05,3.3,8.9,8.9,0,0,0,3.45,2.07,14.82,14.82,0,0,0,4.86.71,14.38,14.38,0,0,0,5-.81,10,10,0,0,0,3.61-2.25,9.46,9.46,0,0,0,2.17-3.44,12.82,12.82,0,0,0,.73-4.38,13.07,13.07,0,0,0-.69-4.38A8.66,8.66,0,0,0,259.87,136.53Zm-1.94,11a6.57,6.57,0,0,1-1.26,2.42,5.78,5.78,0,0,1-2.21,1.57,9.32,9.32,0,0,1-6.5-.05,5.54,5.54,0,0,1-2.14-1.66,6.66,6.66,0,0,1-1.14-2.45,12.59,12.59,0,0,1-.34-3,10.7,10.7,0,0,1,.42-3.07,6.71,6.71,0,0,1,1.27-2.43,5.77,5.77,0,0,1,2.19-1.58,9.38,9.38,0,0,1,6.52.05,5.36,5.36,0,0,1,2.13,1.67,6.94,6.94,0,0,1,1.13,2.46,13,13,0,0,1,.34,3A11.16,11.16,0,0,1,257.93,147.54Z" transform="translate(-1.26 -4.26)"/><path class="cls-1" d="M279.64,137.11a.68.68,0,0,0,.6-.34,2.13,2.13,0,0,0,.23-1.12,4.25,4.25,0,0,0-.05-.69,1.36,1.36,0,0,0-.17-.47.65.65,0,0,0-.26-.26.78.78,0,0,0-.35-.07h-5.8v-4.62a.42.42,0,0,0-.1-.28.83.83,0,0,0-.32-.23,2.48,2.48,0,0,0-.63-.14,9.78,9.78,0,0,0-1,0,9.29,9.29,0,0,0-1,0,2.68,2.68,0,0,0-.64.14.73.73,0,0,0-.33.23.47.47,0,0,0-.09.28v4.62h-3.13a.87.87,0,0,0-.37.07.59.59,0,0,0-.26.26,1.61,1.61,0,0,0-.16.47,2.66,2.66,0,0,0-.07.69,2.13,2.13,0,0,0,.23,1.12.68.68,0,0,0,.6.34h3.16v11.36a10.16,10.16,0,0,0,.37,2.92,4.75,4.75,0,0,0,1.16,2.05,5,5,0,0,0,2.06,1.21,9.89,9.89,0,0,0,3,.4,11.27,11.27,0,0,0,1.16-.06c.38-.05.74-.1,1.09-.17a5.22,5.22,0,0,0,.91-.24,2,2,0,0,0,.6-.33,1,1,0,0,0,.31-.54,4.19,4.19,0,0,0,.1-1,3.82,3.82,0,0,0-.05-.65,3.05,3.05,0,0,0-.12-.41.35.35,0,0,0-.17-.2.53.53,0,0,0-.24-.06,1.31,1.31,0,0,0-.45.1l-.6.2a6.77,6.77,0,0,1-.81.21,5.21,5.21,0,0,1-1,.1,2.78,2.78,0,0,1-2.47-1,5.43,5.43,0,0,1-.69-3V137.11Z" transform="translate(-1.26 -4.26)"/><path class="cls-1" d="M303.67,136.53a8.9,8.9,0,0,0-3.45-2.07,14.8,14.8,0,0,0-4.85-.71,14.25,14.25,0,0,0-5,.8,9.92,9.92,0,0,0-3.61,2.24,9.08,9.08,0,0,0-2.15,3.44,12.8,12.8,0,0,0-.72,4.37,13.43,13.43,0,0,0,.68,4.41,8.52,8.52,0,0,0,2.06,3.3,8.9,8.9,0,0,0,3.45,2.07,14.76,14.76,0,0,0,4.85.71,14.34,14.34,0,0,0,5-.81,9.9,9.9,0,0,0,3.61-2.25,9.2,9.2,0,0,0,2.17-3.44,12.58,12.58,0,0,0,.73-4.38,13.07,13.07,0,0,0-.69-4.38A8.66,8.66,0,0,0,303.67,136.53Zm-1.93,11a6.59,6.59,0,0,1-1.27,2.42,5.74,5.74,0,0,1-2.2,1.57,9.35,9.35,0,0,1-6.51-.05,5.69,5.69,0,0,1-2.14-1.66,6.66,6.66,0,0,1-1.14-2.45,13.13,13.13,0,0,1-.34-3,10.7,10.7,0,0,1,.42-3.07,6.73,6.73,0,0,1,1.28-2.43,5.62,5.62,0,0,1,2.19-1.58,9.38,9.38,0,0,1,6.52.05,5.4,5.4,0,0,1,2.12,1.67,6.77,6.77,0,0,1,1.13,2.46,12.48,12.48,0,0,1,.34,3A11.17,11.17,0,0,1,301.74,147.54Z" transform="translate(-1.26 -4.26)"/><path class="cls-1" d="M330.54,134.16h-6.82a13.55,13.55,0,0,0-1.67-.27,16.4,16.4,0,0,0-1.92-.1,11.93,11.93,0,0,0-3.52.49,8.16,8.16,0,0,0-2.78,1.39,6.26,6.26,0,0,0-1.8,2.22,6.56,6.56,0,0,0-.66,3,5.92,5.92,0,0,0,.46,2.43,6.13,6.13,0,0,0,1.23,1.8A8.12,8.12,0,0,0,311.5,147a4.42,4.42,0,0,0-.63,2.35,3,3,0,0,0,.59,1.77,4.32,4.32,0,0,0,1.82,1.36,13.18,13.18,0,0,0-1.42,1.09,6.34,6.34,0,0,0-1,1.15,4.45,4.45,0,0,0-.62,1.28,4.85,4.85,0,0,0-.2,1.38,4.07,4.07,0,0,0,.55,2.08,4.55,4.55,0,0,0,1.78,1.65,10.9,10.9,0,0,0,3.15,1.09,23,23,0,0,0,4.66.4,20.22,20.22,0,0,0,4.91-.53,10.77,10.77,0,0,0,3.43-1.44,6.16,6.16,0,0,0,2-2.13,5.24,5.24,0,0,0,.66-2.55,4.28,4.28,0,0,0-.58-2.23,5,5,0,0,0-1.61-1.62,8,8,0,0,0-2.43-1,14,14,0,0,0-3.09-.4l-5.89-.22a4.41,4.41,0,0,1-2.17-.54,1.44,1.44,0,0,1-.82-1.25,2.25,2.25,0,0,1,.29-1.14,3.48,3.48,0,0,1,.74-.89,5.81,5.81,0,0,0,1.92.79,10.63,10.63,0,0,0,2.62.31,12.73,12.73,0,0,0,3.56-.47,8.7,8.7,0,0,0,2.78-1.37,6.2,6.2,0,0,0,1.79-2.19,6.76,6.76,0,0,0,.63-3,5.66,5.66,0,0,0-.35-2,4.48,4.48,0,0,0-1.23-1.71h3.23a.73.73,0,0,0,.62-.34,1.89,1.89,0,0,0,.24-1.09,2.2,2.2,0,0,0-.22-1.09A.7.7,0,0,0,330.54,134.16Zm-15.93,21.07a5.49,5.49,0,0,1,.82-.92,9.82,9.82,0,0,1,1.31-1l5.85.17a6.72,6.72,0,0,1,3.22.73,2.11,2.11,0,0,1,1.2,1.93,3.14,3.14,0,0,1-.34,1.4,3.22,3.22,0,0,1-1.12,1.19,6.71,6.71,0,0,1-2,.83,13.4,13.4,0,0,1-3.15.31,11.87,11.87,0,0,1-4.62-.72,2.32,2.32,0,0,1-1.66-2.13,3.28,3.28,0,0,1,.12-.88A2.78,2.78,0,0,1,314.61,155.23Zm10-12.89a3.81,3.81,0,0,1-.87,1.37,4.25,4.25,0,0,1-1.5.93,6.19,6.19,0,0,1-2.13.33,5.27,5.27,0,0,1-3.55-1.1,3.8,3.8,0,0,1-1.27-3,4.77,4.77,0,0,1,.29-1.65,4,4,0,0,1,.88-1.4,4,4,0,0,1,1.48-.94,5.57,5.57,0,0,1,2.1-.35,5.31,5.31,0,0,1,3.6,1.11,3.92,3.92,0,0,1,1.26,3.1A4.47,4.47,0,0,1,324.63,142.34Z" transform="translate(-1.26 -4.26)"/><path class="cls-1" d="M349.85,134.76a2.3,2.3,0,0,0-.09-.25.62.62,0,0,0-.2-.2,1.81,1.81,0,0,0-.51-.22c-.25-.07-.52-.13-.82-.19a7.09,7.09,0,0,0-.86-.12l-.75,0a6.42,6.42,0,0,0-1.44.16,5.24,5.24,0,0,0-1.44.58,9,9,0,0,0-1.54,1.16,15.28,15.28,0,0,0-1.75,1.9v-2.83a.52.52,0,0,0-.08-.29.88.88,0,0,0-.29-.22,1.85,1.85,0,0,0-.57-.13c-.24,0-.55,0-.91,0s-.7,0-.93,0a2,2,0,0,0-.58.13.68.68,0,0,0-.3.22.52.52,0,0,0-.07.29v19.42a.43.43,0,0,0,.08.29.72.72,0,0,0,.33.21,2.74,2.74,0,0,0,.64.13,9.41,9.41,0,0,0,1,0,9.78,9.78,0,0,0,1,0,2.54,2.54,0,0,0,.63-.13.74.74,0,0,0,.32-.21.39.39,0,0,0,.1-.29V141.37c.59-.8,1.12-1.46,1.61-2a9.76,9.76,0,0,1,1.39-1.32,5,5,0,0,1,1.27-.71,3.71,3.71,0,0,1,1.23-.22,5,5,0,0,1,1,.09l.81.18.66.2a1.71,1.71,0,0,0,.48.1.51.51,0,0,0,.32-.1.86.86,0,0,0,.19-.28,1.83,1.83,0,0,0,.1-.51c0-.22,0-.48,0-.8s0-.59,0-.79A3.18,3.18,0,0,0,349.85,134.76Z" transform="translate(-1.26 -4.26)"/><path class="cls-1" d="M368.58,135.61a7.17,7.17,0,0,0-2.76-1.39,16,16,0,0,0-4.14-.47,17.28,17.28,0,0,0-2.59.2,19.58,19.58,0,0,0-2.35.52,14.39,14.39,0,0,0-1.91.69,5.58,5.58,0,0,0-1.17.66,1.18,1.18,0,0,0-.42.59,3.27,3.27,0,0,0-.09.86,2.76,2.76,0,0,0,.05.59,1.19,1.19,0,0,0,.16.44.8.8,0,0,0,.26.26.68.68,0,0,0,.35.09,2.32,2.32,0,0,0,.92-.32q.62-.32,1.53-.69a16.72,16.72,0,0,1,2.13-.69,11,11,0,0,1,2.75-.31,8.73,8.73,0,0,1,2.41.29,3.92,3.92,0,0,1,1.59.86,3.29,3.29,0,0,1,.89,1.44,6.38,6.38,0,0,1,.28,2v1.51h-3.11a26.1,26.1,0,0,0-4.74.39,12.25,12.25,0,0,0-3.57,1.2,6.07,6.07,0,0,0-2.23,2,5.16,5.16,0,0,0-.78,2.85,5.33,5.33,0,0,0,.57,2.5,5.14,5.14,0,0,0,1.58,1.86,7.37,7.37,0,0,0,2.46,1.15,11.88,11.88,0,0,0,3.22.4,10,10,0,0,0,3.85-.75,11.34,11.34,0,0,0,3.3-2.12v1.95a.43.43,0,0,0,.18.38,1.32,1.32,0,0,0,.56.2,7.18,7.18,0,0,0,1,.06,6.57,6.57,0,0,0,1-.06,1.59,1.59,0,0,0,.55-.2.4.4,0,0,0,.2-.38V141.06a9.8,9.8,0,0,0-.47-3.17A5.36,5.36,0,0,0,368.58,135.61Zm-2.11,13.81a13,13,0,0,1-2.92,2.18,6.63,6.63,0,0,1-3,.71,4.85,4.85,0,0,1-3.12-.9,2.93,2.93,0,0,1-1.12-2.4,3.1,3.1,0,0,1,.39-1.57,3.26,3.26,0,0,1,1.22-1.16,6.56,6.56,0,0,1,2.08-.74,15.88,15.88,0,0,1,3-.25h3.54Z" transform="translate(-1.26 -4.26)"/><path class="cls-1" d="M396.86,136.81a7.38,7.38,0,0,0-2.82-2.24,9.66,9.66,0,0,0-4.19-.82,9.83,9.83,0,0,0-2.14.22,10.36,10.36,0,0,0-2,.67,12.92,12.92,0,0,0-1.91,1.11,24.89,24.89,0,0,0-2,1.58v-2.61a.54.54,0,0,0-.08-.31.74.74,0,0,0-.32-.21,2,2,0,0,0-.56-.12q-.35,0-.87,0c-.33,0-.62,0-.85,0a2.11,2.11,0,0,0-.58.12.61.61,0,0,0-.3.21.55.55,0,0,0-.07.31v27.13a.52.52,0,0,0,.08.3.66.66,0,0,0,.33.22,3.39,3.39,0,0,0,.64.13,9.41,9.41,0,0,0,1,0,9.78,9.78,0,0,0,1,0,3.1,3.1,0,0,0,.63-.13.67.67,0,0,0,.32-.22.48.48,0,0,0,.11-.3v-9.71c.6.5,1.17.94,1.7,1.31a9.59,9.59,0,0,0,1.62.93,7.75,7.75,0,0,0,1.67.54,9,9,0,0,0,1.85.17,10.76,10.76,0,0,0,4.19-.76,8.34,8.34,0,0,0,3.08-2.18,9.49,9.49,0,0,0,1.88-3.45,15,15,0,0,0,.64-4.57,15.79,15.79,0,0,0-.5-4A9.44,9.44,0,0,0,396.86,136.81Zm-2.52,10.43a8,8,0,0,1-1,2.41,5.2,5.2,0,0,1-1.82,1.73,5.3,5.3,0,0,1-2.69.65,6.12,6.12,0,0,1-3.23-.95,16.82,16.82,0,0,1-3.25-2.74v-7.73a18.77,18.77,0,0,1,1.86-1.78,12.35,12.35,0,0,1,1.69-1.17,7,7,0,0,1,1.59-.64,6.22,6.22,0,0,1,1.6-.21,5.24,5.24,0,0,1,2.7.65,4.94,4.94,0,0,1,1.73,1.73,7.56,7.56,0,0,1,.9,2.47,15.12,15.12,0,0,1,.27,2.88A11.33,11.33,0,0,1,394.34,147.24Z" transform="translate(-1.26 -4.26)"/><path class="cls-1" d="M422.84,136.16a6.57,6.57,0,0,0-2.49-1.75,9.69,9.69,0,0,0-3.8-.66,9.1,9.1,0,0,0-3.64.78,13.38,13.38,0,0,0-3.59,2.41V125.31a.44.44,0,0,0-.1-.3.71.71,0,0,0-.33-.22,2.55,2.55,0,0,0-.62-.13,9.78,9.78,0,0,0-1,0,9.62,9.62,0,0,0-1,0,2.64,2.64,0,0,0-.63.13.66.66,0,0,0-.33.22.49.49,0,0,0-.09.3v28.83a.44.44,0,0,0,.09.29.72.72,0,0,0,.33.21,2.64,2.64,0,0,0,.63.13,9.62,9.62,0,0,0,1,0,9.78,9.78,0,0,0,1,0,2.55,2.55,0,0,0,.62-.13.78.78,0,0,0,.33-.21.39.39,0,0,0,.1-.29V140.57a16.25,16.25,0,0,1,3.26-2.79,6,6,0,0,1,3.11-.95,5.35,5.35,0,0,1,2.12.39,3.85,3.85,0,0,1,1.5,1.12,5.32,5.32,0,0,1,.87,1.75,9.7,9.7,0,0,1,.31,2.68v11.37a.39.39,0,0,0,.1.29.74.74,0,0,0,.32.21,2.54,2.54,0,0,0,.63.13,9.78,9.78,0,0,0,1,0,9.41,9.41,0,0,0,1,0,2.54,2.54,0,0,0,.63-.13.74.74,0,0,0,.32-.21.4.4,0,0,0,.11-.29V142.32a13.27,13.27,0,0,0-.42-3.58A6.56,6.56,0,0,0,422.84,136.16Z" transform="translate(-1.26 -4.26)"/><path class="cls-1" d="M449.55,134.31a1.5,1.5,0,0,0-.66-.21c-.3,0-.69,0-1.16,0s-.94,0-1.23,0a1.91,1.91,0,0,0-.64.18.91.91,0,0,0-.36.52l-6.22,15.67h-.08l-6.45-15.58a2.88,2.88,0,0,0-.23-.44.74.74,0,0,0-.37-.25,2.61,2.61,0,0,0-.68-.12q-.42,0-1.17,0c-.51,0-.91,0-1.21,0a1.41,1.41,0,0,0-.65.21.5.5,0,0,0-.2.41,2,2,0,0,0,.2.71L436.49,154a1,1,0,0,0,.28.41,1.11,1.11,0,0,0,.42.28l-3.11,6.76a.91.91,0,0,0-.12.52.41.41,0,0,0,.24.34,1.57,1.57,0,0,0,.61.19,9.75,9.75,0,0,0,1.06,0,7.12,7.12,0,0,0,1.86-.18,1.15,1.15,0,0,0,.77-.53l3-7.15,8.1-19.31a1.91,1.91,0,0,0,.15-.65A.48.48,0,0,0,449.55,134.31Z" transform="translate(-1.26 -4.26)"/><path class="cls-1" d="M109,65.45a32.73,32.73,0,0,0,1.76-10.57c0-20.74-19.54-37.56-43.65-37.56S23.4,34.14,23.4,54.88a32.91,32.91,0,0,0,1.72,10.46C14.73,70.18,7.67,79.64,7.67,90.52c0,15.81,14.89,28.62,33.26,28.62,12.34,0,23.1-5.78,28.84-14.37,5.21,10,16.83,16.88,30.34,16.88,18.37,0,33.26-12.81,33.26-28.61C133.37,79.87,123,68.78,109,65.45Z" transform="translate(-1.26 -4.26)"/><line class="cls-2" x1="27.36" y1="94.22" x2="48.73" y2="112.6"/><line class="cls-3" x1="27.36" y1="94.22" x2="48.73" y2="112.6"/><line class="cls-2" x1="106.17" y1="82.34" x2="78.75" y2="105.92"/><line class="cls-4" x1="106.17" y1="82.34" x2="78.75" y2="105.92"/><line class="cls-5" x1="67.75" y1="57.23" x2="68.62" y2="103.41"/><line class="cls-1" x1="68.59" y1="105.32" x2="67.79" y2="153.19"/><line class="cls-6" x1="68.59" y1="105.32" x2="67.79" y2="153.19"/><line class="cls-1" x1="48.4" y1="112" x2="66.56" y2="129.49"/><line class="cls-6" x1="48.4" y1="112" x2="66.56" y2="129.49"/><line class="cls-1" x1="78.75" y1="105.92" x2="68.68" y2="114.31"/><line class="cls-6" x1="78.75" y1="105.92" x2="68.68" y2="114.31"/><ellipse class="cls-7" cx="27.27" cy="94.13" rx="2.24" ry="5.87"/><ellipse class="cls-7" cx="67.79" cy="59.36" rx="2.24" ry="5.87"/><ellipse class="cls-7" cx="105.63" cy="83.54" rx="2.24" ry="5.87"/><rect class="cls-8" width="541.14" height="168"/></svg>